# xmcd
#
# Track frame offsets: 
#        150
#        13240
#        28542
#        47194
#        67477
#        80236
#        97445
#        113308
#        132250
#        142537
#        157819
#        167968
#        178961
#        197735
#        228510
#
# Disc length: 4180 seconds
#
# Revision: 7
# Processed by: cddbd v1.5.2PL0 Copyright (c) Steve Scherf et al.
# Submitted via: ExactAudioCopyFreeDBPlugin 1.0
#
DISCID=d510520f
DTITLE=Texas Lightning - Meanwhile back at the Ranch
DYEAR=2005
DGENRE=Country
TTITLE0=Bad Case Of Loving You
TTITLE1=Lika A Virgin
TTITLE2=Kiss
TTITLE3=Over The Mountains
TTITLE4=C`est La Vie
TTITLE5=Highway To Hell
TTITLE6=Dancing Queen
TTITLE7=Man In The Mirror
TTITLE8=Norwegian Wood
TTITLE9=Smoke Smoke Smoke (That Cigarette)
TTITLE10=Walking After Midnight
TTITLE11=Raindrops Keep Falling On My Head
TTITLE12=Walk On The Wild Side
TTITLE13=Blue Bayou
TTITLE14=Daten-CD
EXTD=Copy Kills Music!!!
EXTT0=
EXTT1=
EXTT2=
EXTT3=
EXTT4=
EXTT5=
EXTT6=
EXTT7=
EXTT8=
EXTT9=
EXTT10=
EXTT11=
EXTT12=
EXTT13=
EXTT14=
PLAYORDER=
